<svg width="865" height="195" viewBox="0 0 865 195" fill="none" xmlns="http://www.w3.org/2000/svg">
<g filter="url(#filter0_di_34_2)">
<path d="M4.53125 3.53125C7.34375 4.03125 9.65625 4.375 11.4688 4.5625C13.2812 4.75 14.75 4.90625 15.875 5.03125C17.1875 5.15625 18.2188 5.1875 18.9688 5.125H21.7812C22.7812 5.125 24.0312 5.125 25.5312 5.125C27.0938 5.0625 29.0312 5.03125 31.3438 5.03125C32.6562 8.09375 33.8438 10.9062 34.9062 13.4688C36.0312 16.0312 36.9688 18.2188 37.7188 20.0312C38.5938 22.2188 39.4062 24.1875 40.1562 25.9375C41.0312 28.125 41.9688 30.5312 42.9688 33.1562C43.9688 35.7812 44.875 38.25 45.6875 40.5625C46.5625 42.875 47.2812 44.7812 47.8438 46.2812C48.4062 47.7812 48.6875 48.4688 48.6875 48.3438C48.6875 48.2812 48.7188 47.6562 48.7812 46.4688C48.8438 45.2188 48.9062 43.6875 48.9688 41.875C49.0312 40 49.0938 37.9688 49.1562 35.7812C49.2812 33.5312 49.3438 31.375 49.3438 29.3125C49.4062 27.1875 49.4375 25.25 49.4375 23.5C49.4375 21.75 49.375 20.4375 49.25 19.5625C49.0625 18.5 48.6875 17.2812 48.125 15.9062C47.625 14.7188 46.9375 13.3125 46.0625 11.6875C45.1875 10 43.9688 8.09375 42.4062 5.96875C44.9688 6.03125 47.0625 6.0625 48.6875 6.0625C50.3125 6.0625 51.625 6.0625 52.625 6.0625C53.75 6.0625 54.625 6.03125 55.25 5.96875C56.0625 5.96875 57.0625 5.90625 58.25 5.78125C59.3125 5.65625 60.625 5.5625 62.1875 5.5C63.8125 5.375 65.8125 5.21875 68.1875 5.03125C66.8125 6.28125 65.7188 7.46875 64.9062 8.59375C64.0938 9.71875 63.4375 10.7188 62.9375 11.5938C62.375 12.5938 62 13.5312 61.8125 14.4062C61.5625 15.5312 61.3438 17.375 61.1562 19.9375C61.0312 22.4375 60.875 25.25 60.6875 28.375C60.5625 31.5 60.4375 34.75 60.3125 38.125C60.1875 41.5 60.0625 44.5938 59.9375 47.4062C59.9375 49.5312 59.875 51.8125 59.75 54.25C59.625 56.3125 59.5 58.6562 59.375 61.2812C59.25 63.8438 59.0938 66.4375 58.9062 69.0625L50.5625 69.25C48.125 64.9375 46.0625 61.25 44.375 58.1875C42.75 55.0625 41.4062 52.5 40.3438 50.5C39.1562 48.1875 38.1562 46.25 37.3438 44.6875C36.6562 43.1875 35.75 41.4688 34.625 39.5312C33.6875 37.9062 32.5 35.9062 31.0625 33.5312C29.6875 31.1562 28.0312 28.4375 26.0938 25.375C25.9062 29.6875 25.8125 33.375 25.8125 36.4375C25.875 39.4375 25.9688 41.9375 26.0938 43.9375C26.2812 46.25 26.5 48.1875 26.75 49.75C27.0625 51.25 27.5 52.9375 28.0625 54.8125C28.5625 56.4375 29.1562 58.3438 29.8438 60.5312C30.5938 62.7188 31.5 65.1875 32.5625 67.9375C28.875 67.75 26.125 67.6562 24.3125 67.6562H21.5C20.625 67.6562 19.4375 67.75 17.9375 67.9375C16.6875 68.0625 14.9688 68.25 12.7812 68.5C10.6562 68.75 8 69.0938 4.8125 69.5312C6.3125 67.7188 7.5 66.0625 8.375 64.5625C9.3125 63 10.0312 61.6875 10.5312 60.625C11.1562 59.375 11.5938 58.2812 11.8438 57.3438C12.0312 56.3438 12.1562 54.625 12.2188 52.1875C12.2812 49.6875 12.2812 46.875 12.2188 43.75C12.2188 40.5625 12.1562 37.2188 12.0312 33.7188C11.9688 30.2188 11.875 26.9688 11.75 23.9688C11.625 20.9688 11.4688 18.4062 11.2812 16.2812C11.1562 14.1562 11.0625 12.8438 11 12.3438C10.8125 11.5312 10.4375 10.6562 9.875 9.71875C9.375 8.90625 8.71875 8 7.90625 7C7.09375 5.9375 5.96875 4.78125 4.53125 3.53125ZM67.7375 5.96875C72.1125 6.09375 75.7375 6.1875 78.6125 6.25C81.55 6.25 83.925 6.25 85.7375 6.25H90.7063H118.644C118.769 7.5 118.863 8.71875 118.925 9.90625C119.05 11.0312 119.113 12.0312 119.113 12.9062C119.113 13.9688 119.081 14.9375 119.019 15.8125C118.956 16.6875 118.863 17.625 118.738 18.625C118.613 19.5 118.488 20.4375 118.363 21.4375C118.238 22.4375 118.019 23.4688 117.706 24.5312C116.831 21.1562 115.644 18.5938 114.144 16.8438C112.706 15.0938 111.238 13.8125 109.738 13C107.988 12.0625 106.144 11.5625 104.206 11.5C101.644 11.625 99.6438 11.8438 98.2063 12.1562C96.7688 12.4688 95.6438 12.9062 94.8313 13.4688C94.0188 14.0312 93.3938 14.6875 92.9563 15.4375C92.5813 16.125 92.175 16.9062 91.7375 17.7812C91.3625 18.5312 91.0188 19.6875 90.7063 21.25C90.3938 22.5625 90.0813 24.3438 89.7688 26.5938C89.5188 28.8438 89.2375 31.75 88.925 35.3125C90.6125 34.8125 91.9563 34.3438 92.9563 33.9062C94.0188 33.4688 94.8625 33.0938 95.4875 32.7812C96.175 32.4062 96.675 32.0625 96.9875 31.75C97.2375 31.375 97.6125 30.6875 98.1125 29.6875C98.4875 28.8125 98.9875 27.625 99.6125 26.125C100.3 24.625 101.113 22.5625 102.05 19.9375C102.175 22.8125 102.238 25.2188 102.238 27.1562C102.238 29.0312 102.269 30.5625 102.331 31.75C102.331 33.125 102.363 34.2188 102.425 35.0312V38.5938C102.425 39.9062 102.425 41.6875 102.425 43.9375C102.488 46.125 102.581 48.9062 102.706 52.2812C101.956 49.9688 101.269 48.1562 100.644 46.8438C100.081 45.4688 99.5813 44.4375 99.1438 43.75C98.6438 42.9375 98.2063 42.375 97.8313 42.0625C97.3938 41.9375 96.8 41.8125 96.05 41.6875C95.3625 41.625 94.4875 41.5938 93.425 41.5938C92.425 41.5938 91.1438 41.75 89.5813 42.0625C89.3938 45.5 89.3625 48.2812 89.4875 50.4062C89.675 52.4688 89.925 54.0625 90.2375 55.1875C90.55 56.5 90.925 57.4375 91.3625 58C91.925 58.5625 93.05 59.0312 94.7375 59.4062C96.425 59.7188 98.3313 59.8438 100.456 59.7812C102.644 59.6562 104.863 59.2812 107.113 58.6562C109.363 58.0312 111.363 57 113.113 55.5625C114.425 54.375 115.831 52.875 117.331 51.0625C118.581 49.5 119.956 47.5312 121.456 45.1562C123.019 42.7812 124.55 39.9062 126.05 36.5312C125.8 39.3438 125.613 41.6875 125.488 43.5625C125.425 45.375 125.331 46.8438 125.206 47.9688C125.081 49.2812 124.988 50.2812 124.925 50.9688C124.925 51.7188 124.831 52.7812 124.644 54.1562C124.519 55.3438 124.3 56.9688 123.988 59.0312C123.738 61.0312 123.394 63.5938 122.956 66.7188C120.019 66.7812 117.238 66.8438 114.613 66.9062C111.988 66.9062 109.675 66.9375 107.675 67C105.3 67.0625 103.113 67.125 101.113 67.1875C99.05 67.1875 96.7688 67.2812 94.2688 67.4688C92.0813 67.5938 89.4875 67.7812 86.4875 68.0312C83.55 68.2812 80.3 68.625 76.7375 69.0625C77.05 64.8125 77.2688 60.8125 77.3938 57.0625C77.5813 53.25 77.7063 49.9062 77.7688 47.0312C77.8313 43.6562 77.8313 40.5312 77.7688 37.6562C78.0813 30.4688 77.9563 24.6562 77.3938 20.2188C76.8313 15.7812 76.175 12.9375 75.425 11.6875C75.05 11.25 74.5188 10.7188 73.8313 10.0938C73.2688 9.59375 72.4875 9 71.4875 8.3125C70.4875 7.625 69.2375 6.84375 67.7375 5.96875ZM125.6 6.34375C128.35 6.46875 130.694 6.5625 132.631 6.625C134.569 6.6875 136.163 6.75 137.413 6.8125C138.913 6.875 140.131 6.9375 141.069 7C142.069 7.0625 143.319 7.09375 144.819 7.09375C147.381 7.09375 151.006 6.90625 155.694 6.53125C154.694 7.03125 153.913 7.59375 153.35 8.21875C152.788 8.78125 152.35 9.34375 152.038 9.90625C151.663 10.5938 151.381 11.25 151.194 11.875C151.069 12.625 151.35 13.7812 152.038 15.3438C152.538 16.6562 153.444 18.4375 154.756 20.6875C156.069 22.9375 158.006 25.8438 160.569 29.4062C163.631 24.9062 166.006 21.375 167.694 18.8125C169.381 16.25 170.631 14.3125 171.444 13C172.381 11.4375 172.944 10.4062 173.131 9.90625C173.069 9.59375 172.819 9.15625 172.381 8.59375C172.006 8.09375 171.381 7.5 170.506 6.8125C169.694 6.0625 168.475 5.15625 166.85 4.09375C169.413 4.46875 171.538 4.75 173.225 4.9375C174.975 5.125 176.381 5.25 177.444 5.3125C178.694 5.375 179.725 5.375 180.538 5.3125C181.35 5.25 182.538 5.1875 184.1 5.125C185.413 5.0625 187.163 5 189.35 4.9375C191.6 4.875 194.475 4.78125 197.975 4.65625C196.6 5.34375 195.413 6 194.413 6.625C193.413 7.25 192.569 7.8125 191.881 8.3125C191.069 8.9375 190.35 9.46875 189.725 9.90625C188.975 10.6562 187.6 12.1875 185.6 14.5C183.913 16.5 181.506 19.4375 178.381 23.3125C175.256 27.125 171.069 32.3125 165.819 38.875C170.069 43.375 173.506 46.9375 176.131 49.5625C178.756 52.1875 180.819 54.1875 182.319 55.5625C184.069 57.1875 185.35 58.2812 186.163 58.8438C186.913 59.2812 187.944 59.8438 189.256 60.5312C190.381 61.1562 191.85 61.9375 193.663 62.875C195.475 63.75 197.788 64.8125 200.6 66.0625H184.944C183.631 66.0625 182.038 66.125 180.163 66.25C178.538 66.375 176.538 66.5 174.163 66.625C171.788 66.75 169.006 66.9688 165.819 67.2812C166.944 66.5938 167.756 65.9375 168.256 65.3125C168.819 64.625 169.194 64.0312 169.381 63.5312C169.631 62.9688 169.663 62.4688 169.475 62.0312C169.163 61.4062 168.631 60.4688 167.881 59.2188C167.194 58.1562 166.225 56.6562 164.975 54.7188C163.725 52.7812 162.006 50.2188 159.819 47.0312C157.319 49.7188 155.381 51.9688 154.006 53.7812C152.694 55.5312 151.694 56.9375 151.006 58C150.256 59.25 149.756 60.25 149.506 61C149.506 61.6875 149.663 62.375 149.975 63.0625C150.288 63.6875 150.788 64.375 151.475 65.125C152.225 65.875 153.319 66.5938 154.756 67.2812L127.006 68.5C129.256 66.9375 131.131 65.5312 132.631 64.2812C134.131 62.9688 135.35 61.875 136.288 61C137.35 59.9375 138.194 59 138.819 58.1875C139.444 57.25 140.413 55.875 141.725 54.0625C142.788 52.5 144.256 50.4062 146.131 47.7812C148.069 45.1562 150.538 41.7812 153.538 37.6562C150.225 32.3438 147.538 28.125 145.475 25C143.475 21.875 141.85 19.4688 140.6 17.7812C139.163 15.8438 138.1 14.5 137.413 13.75C136.788 13.1875 135.913 12.5625 134.788 11.875C133.85 11.25 132.631 10.5 131.131 9.625C129.631 8.6875 127.788 7.59375 125.6 6.34375ZM191.525 1.5625C195.712 2.0625 199.337 2.4375 202.4 2.6875C205.462 2.875 207.994 3.03125 209.994 3.15625C212.306 3.28125 214.244 3.3125 215.806 3.25C217.431 3.1875 219.65 3.03125 222.462 2.78125C224.837 2.59375 227.962 2.34375 231.837 2.03125C235.712 1.65625 240.556 1.15625 246.369 0.53125C246.431 1.96875 246.462 3.375 246.462 4.75C246.525 6.0625 246.587 7.21875 246.65 8.21875C246.712 9.40625 246.744 10.5 246.744 11.5C246.744 12.5625 246.681 13.9062 246.556 15.5312C246.431 16.9062 246.212 18.6562 245.9 20.7812C245.65 22.8438 245.244 25.3125 244.681 28.1875C243.806 24.8125 242.962 22.0938 242.15 20.0312C241.337 17.9062 240.587 16.2188 239.9 14.9688C239.15 13.5312 238.4 12.4375 237.65 11.6875C236.837 11.125 235.869 10.6562 234.744 10.2812C233.744 9.96875 232.462 9.71875 230.9 9.53125C229.4 9.34375 227.619 9.375 225.556 9.625C225.244 17.875 225.025 24.5625 224.9 29.6875C224.775 34.8125 224.681 38.8125 224.619 41.6875C224.556 45.125 224.525 47.5938 224.525 49.0938C224.587 51.2188 224.931 53.3125 225.556 55.375C226.056 57.125 226.869 58.9375 227.994 60.8125C229.119 62.6875 230.744 64.3438 232.869 65.7812H221.431C220.369 65.7812 219.056 65.8438 217.494 65.9688C216.181 66.0938 214.494 66.2188 212.431 66.3438C210.431 66.4688 208.087 66.6875 205.4 67C206.337 65.375 207.087 63.9062 207.65 62.5938C208.212 61.2812 208.65 60.1562 208.962 59.2188C209.337 58.0938 209.619 57.0938 209.806 56.2188C209.869 54.9688 210.025 52.4375 210.275 48.625C210.337 47.0625 210.4 45.125 210.462 42.8125C210.587 40.5 210.712 37.75 210.837 34.5625C211.025 31.375 211.181 27.7188 211.306 23.5938C211.494 19.4062 211.681 14.6875 211.869 9.4375C210.744 9.125 209.681 9.15625 208.681 9.53125C207.681 9.84375 206.806 10.25 206.056 10.75C205.181 11.375 204.337 12.125 203.525 13C202.712 14.0625 201.806 15.4375 200.806 17.125C199.931 18.5625 198.931 20.4688 197.806 22.8438C196.681 25.1562 195.4 28.0312 193.962 31.4688C193.65 27.8438 193.431 24.875 193.306 22.5625C193.181 20.1875 193.087 18.3438 193.025 17.0312C192.962 15.4688 192.931 14.3125 192.931 13.5625C192.931 12.875 192.869 11.9688 192.744 10.8438C192.619 9.90625 192.462 8.6875 192.275 7.1875C192.087 5.625 191.837 3.75 191.525 1.5625ZM290.506 118.312C294.506 118.25 297.788 118.969 300.35 120.469C302.975 121.969 305.1 123.75 306.725 125.812C308.35 127.875 309.6 129.969 310.475 132.094C311.35 134.156 312.038 135.781 312.538 136.969C312.663 137.281 312.913 137.688 313.288 138.188C313.6 138.625 314.038 139.156 314.6 139.781C315.225 140.344 316.006 141 316.944 141.75C315.006 141.812 313.288 141.875 311.788 141.938C310.288 141.938 309.006 141.969 307.944 142.031C306.756 142.094 305.694 142.156 304.756 142.219C303.819 142.281 302.663 142.375 301.288 142.5C300.038 142.625 298.506 142.75 296.694 142.875C294.881 143 292.663 143.188 290.038 143.438C291.6 141.562 292.819 139.906 293.694 138.469C294.631 136.969 295.319 135.656 295.756 134.531C296.256 133.344 296.538 132.312 296.6 131.438C296.725 130.562 296.694 129.812 296.506 129.188C296.131 127.75 295.163 126.719 293.6 126.094C289.1 124.844 285.163 125.844 281.788 129.094C278.475 132.281 276.1 137.531 274.663 144.844C273.975 148.469 273.319 152.25 272.694 156.188C272.131 160.062 271.913 163.625 272.038 166.875C272.163 170.062 272.788 172.656 273.913 174.656C275.038 176.656 276.975 177.594 279.725 177.469C282.413 177.344 284.694 176.906 286.569 176.156C288.444 175.344 289.944 174.406 291.069 173.344C292.194 172.219 292.975 171.031 293.413 169.781C293.913 168.469 294.1 167.25 293.975 166.125C293.725 165.25 293.069 164.312 292.006 163.312C291.069 162.438 289.663 161.469 287.788 160.406C285.913 159.281 283.225 158.125 279.725 156.938C283.038 156.75 285.756 156.625 287.881 156.562C290.069 156.438 291.788 156.312 293.038 156.188C294.538 156.062 295.694 155.969 296.506 155.906C297.256 155.844 298.35 155.781 299.788 155.719C301.038 155.656 302.631 155.625 304.569 155.625C306.569 155.625 309.069 155.594 312.069 155.531C310.944 156.656 310.069 157.688 309.444 158.625C309.131 159.125 308.85 159.562 308.6 159.938C308.35 160.562 308.256 161.844 308.319 163.781C308.319 165.406 308.444 167.812 308.694 171C308.944 174.125 309.413 178.406 310.1 183.844L297.631 185.531L298.194 172.875C296.756 176.312 294.944 178.875 292.756 180.562C290.631 182.25 288.6 183.438 286.663 184.125C284.35 184.938 281.944 185.312 279.444 185.25C276.194 184.938 272.944 184.188 269.694 183C266.444 181.812 263.569 180 261.069 177.562C258.569 175.062 256.631 171.844 255.256 167.906C253.944 163.969 253.538 159.094 254.038 153.281C254.6 147.469 255.975 142.406 258.163 138.094C260.413 133.719 263.194 130.094 266.506 127.219C269.819 124.344 273.538 122.188 277.663 120.75C281.85 119.25 286.131 118.438 290.506 118.312ZM316.494 121.969C320.869 122.094 324.494 122.188 327.369 122.25C330.306 122.25 332.681 122.25 334.494 122.25H339.462H367.4C367.525 123.5 367.619 124.719 367.681 125.906C367.806 127.031 367.869 128.031 367.869 128.906C367.869 129.969 367.837 130.938 367.775 131.812C367.712 132.688 367.619 133.625 367.494 134.625C367.369 135.5 367.244 136.438 367.119 137.438C366.994 138.438 366.775 139.469 366.462 140.531C365.587 137.156 364.4 134.594 362.9 132.844C361.462 131.094 359.994 129.812 358.494 129C356.744 128.062 354.9 127.562 352.962 127.5C350.4 127.625 348.4 127.844 346.962 128.156C345.525 128.469 344.4 128.906 343.587 129.469C342.775 130.031 342.15 130.688 341.712 131.438C341.337 132.125 340.931 132.906 340.494 133.781C340.119 134.531 339.775 135.688 339.462 137.25C339.15 138.562 338.837 140.344 338.525 142.594C338.275 144.844 337.994 147.75 337.681 151.312C339.369 150.812 340.712 150.344 341.712 149.906C342.775 149.469 343.619 149.094 344.244 148.781C344.931 148.406 345.431 148.062 345.744 147.75C345.994 147.375 346.369 146.688 346.869 145.688C347.244 144.812 347.744 143.625 348.369 142.125C349.056 140.625 349.869 138.562 350.806 135.938C350.931 138.812 350.994 141.219 350.994 143.156C350.994 145.031 351.025 146.562 351.087 147.75C351.087 149.125 351.119 150.219 351.181 151.031V154.594C351.181 155.906 351.181 157.688 351.181 159.938C351.244 162.125 351.337 164.906 351.462 168.281C350.712 165.969 350.025 164.156 349.4 162.844C348.837 161.469 348.337 160.438 347.9 159.75C347.4 158.938 346.962 158.375 346.587 158.062C346.15 157.938 345.556 157.812 344.806 157.688C344.119 157.625 343.244 157.594 342.181 157.594C341.181 157.594 339.9 157.75 338.337 158.062C338.15 161.5 338.119 164.281 338.244 166.406C338.431 168.469 338.681 170.062 338.994 171.188C339.306 172.5 339.681 173.438 340.119 174C340.681 174.562 341.806 175.031 343.494 175.406C345.181 175.719 347.087 175.844 349.212 175.781C351.4 175.656 353.619 175.281 355.869 174.656C358.119 174.031 360.119 173 361.869 171.562C363.181 170.375 364.587 168.875 366.087 167.062C367.337 165.5 368.712 163.531 370.212 161.156C371.775 158.781 373.306 155.906 374.806 152.531C374.556 155.344 374.369 157.688 374.244 159.562C374.181 161.375 374.087 162.844 373.962 163.969C373.837 165.281 373.744 166.281 373.681 166.969C373.681 167.719 373.587 168.781 373.4 170.156C373.275 171.344 373.056 172.969 372.744 175.031C372.494 177.031 372.15 179.594 371.712 182.719C368.775 182.781 365.994 182.844 363.369 182.906C360.744 182.906 358.431 182.938 356.431 183C354.056 183.062 351.869 183.125 349.869 183.188C347.806 183.188 345.525 183.281 343.025 183.469C340.837 183.594 338.244 183.781 335.244 184.031C332.306 184.281 329.056 184.625 325.494 185.062C325.806 180.812 326.025 176.812 326.15 173.062C326.337 169.25 326.462 165.906 326.525 163.031C326.587 159.656 326.587 156.531 326.525 153.656C326.837 146.469 326.712 140.656 326.15 136.219C325.587 131.781 324.931 128.938 324.181 127.688C323.806 127.25 323.275 126.719 322.587 126.094C322.025 125.594 321.244 125 320.244 124.312C319.244 123.625 317.994 122.844 316.494 121.969ZM378.2 119.531C381.013 120.031 383.325 120.375 385.138 120.562C386.95 120.75 388.419 120.906 389.544 121.031C390.856 121.156 391.888 121.188 392.638 121.125H395.45C396.45 121.125 397.7 121.125 399.2 121.125C400.763 121.062 402.7 121.031 405.013 121.031C406.325 124.094 407.513 126.906 408.575 129.469C409.7 132.031 410.638 134.219 411.388 136.031C412.263 138.219 413.075 140.188 413.825 141.938C414.7 144.125 415.638 146.531 416.638 149.156C417.638 151.781 418.544 154.25 419.356 156.562C420.231 158.875 420.95 160.781 421.513 162.281C422.075 163.781 422.356 164.469 422.356 164.344C422.356 164.281 422.388 163.656 422.45 162.469C422.513 161.219 422.575 159.688 422.638 157.875C422.7 156 422.763 153.969 422.825 151.781C422.95 149.531 423.013 147.375 423.013 145.312C423.075 143.188 423.106 141.25 423.106 139.5C423.106 137.75 423.044 136.438 422.919 135.562C422.731 134.5 422.356 133.281 421.794 131.906C421.294 130.719 420.606 129.312 419.731 127.688C418.856 126 417.638 124.094 416.075 121.969C418.638 122.031 420.731 122.062 422.356 122.062C423.981 122.062 425.294 122.062 426.294 122.062C427.419 122.062 428.294 122.031 428.919 121.969C429.731 121.969 430.731 121.906 431.919 121.781C432.981 121.656 434.294 121.562 435.856 121.5C437.481 121.375 439.481 121.219 441.856 121.031C440.481 122.281 439.388 123.469 438.575 124.594C437.763 125.719 437.106 126.719 436.606 127.594C436.044 128.594 435.669 129.531 435.481 130.406C435.231 131.531 435.013 133.375 434.825 135.938C434.7 138.438 434.544 141.25 434.356 144.375C434.231 147.5 434.106 150.75 433.981 154.125C433.856 157.5 433.731 160.594 433.606 163.406C433.606 165.531 433.544 167.812 433.419 170.25C433.294 172.312 433.169 174.656 433.044 177.281C432.919 179.844 432.763 182.438 432.575 185.062L424.231 185.25C421.794 180.938 419.731 177.25 418.044 174.188C416.419 171.062 415.075 168.5 414.013 166.5C412.825 164.188 411.825 162.25 411.013 160.688C410.325 159.188 409.419 157.469 408.294 155.531C407.356 153.906 406.169 151.906 404.731 149.531C403.356 147.156 401.7 144.438 399.763 141.375C399.575 145.688 399.481 149.375 399.481 152.438C399.544 155.438 399.638 157.938 399.763 159.938C399.95 162.25 400.169 164.188 400.419 165.75C400.731 167.25 401.169 168.938 401.731 170.812C402.231 172.438 402.825 174.344 403.513 176.531C404.263 178.719 405.169 181.188 406.231 183.938C402.544 183.75 399.794 183.656 397.981 183.656H395.169C394.294 183.656 393.106 183.75 391.606 183.938C390.356 184.062 388.638 184.25 386.45 184.5C384.325 184.75 381.669 185.094 378.481 185.531C379.981 183.719 381.169 182.062 382.044 180.562C382.981 179 383.7 177.688 384.2 176.625C384.825 175.375 385.263 174.281 385.513 173.344C385.7 172.344 385.825 170.625 385.888 168.188C385.95 165.688 385.95 162.875 385.888 159.75C385.888 156.562 385.825 153.219 385.7 149.719C385.638 146.219 385.544 142.969 385.419 139.969C385.294 136.969 385.138 134.406 384.95 132.281C384.825 130.156 384.731 128.844 384.669 128.344C384.481 127.531 384.106 126.656 383.544 125.719C383.044 124.906 382.388 124 381.575 123C380.763 121.938 379.638 120.781 378.2 119.531ZM441.406 121.969C445.781 122.094 449.406 122.188 452.281 122.25C455.219 122.25 457.594 122.25 459.406 122.25H464.375H492.312C492.438 123.5 492.531 124.719 492.594 125.906C492.719 127.031 492.781 128.031 492.781 128.906C492.781 129.969 492.75 130.938 492.688 131.812C492.625 132.688 492.531 133.625 492.406 134.625C492.281 135.5 492.156 136.438 492.031 137.438C491.906 138.438 491.688 139.469 491.375 140.531C490.5 137.156 489.312 134.594 487.812 132.844C486.375 131.094 484.906 129.812 483.406 129C481.656 128.062 479.812 127.562 477.875 127.5C475.312 127.625 473.312 127.844 471.875 128.156C470.438 128.469 469.312 128.906 468.5 129.469C467.688 130.031 467.062 130.688 466.625 131.438C466.25 132.125 465.844 132.906 465.406 133.781C465.031 134.531 464.688 135.688 464.375 137.25C464.062 138.562 463.75 140.344 463.438 142.594C463.188 144.844 462.906 147.75 462.594 151.312C464.281 150.812 465.625 150.344 466.625 149.906C467.688 149.469 468.531 149.094 469.156 148.781C469.844 148.406 470.344 148.062 470.656 147.75C470.906 147.375 471.281 146.688 471.781 145.688C472.156 144.812 472.656 143.625 473.281 142.125C473.969 140.625 474.781 138.562 475.719 135.938C475.844 138.812 475.906 141.219 475.906 143.156C475.906 145.031 475.938 146.562 476 147.75C476 149.125 476.031 150.219 476.094 151.031V154.594C476.094 155.906 476.094 157.688 476.094 159.938C476.156 162.125 476.25 164.906 476.375 168.281C475.625 165.969 474.938 164.156 474.312 162.844C473.75 161.469 473.25 160.438 472.812 159.75C472.312 158.938 471.875 158.375 471.5 158.062C471.062 157.938 470.469 157.812 469.719 157.688C469.031 157.625 468.156 157.594 467.094 157.594C466.094 157.594 464.812 157.75 463.25 158.062C463.062 161.5 463.031 164.281 463.156 166.406C463.344 168.469 463.594 170.062 463.906 171.188C464.219 172.5 464.594 173.438 465.031 174C465.594 174.562 466.719 175.031 468.406 175.406C470.094 175.719 472 175.844 474.125 175.781C476.312 175.656 478.531 175.281 480.781 174.656C483.031 174.031 485.031 173 486.781 171.562C488.094 170.375 489.5 168.875 491 167.062C492.25 165.5 493.625 163.531 495.125 161.156C496.688 158.781 498.219 155.906 499.719 152.531C499.469 155.344 499.281 157.688 499.156 159.562C499.094 161.375 499 162.844 498.875 163.969C498.75 165.281 498.656 166.281 498.594 166.969C498.594 167.719 498.5 168.781 498.312 170.156C498.188 171.344 497.969 172.969 497.656 175.031C497.406 177.031 497.062 179.594 496.625 182.719C493.688 182.781 490.906 182.844 488.281 182.906C485.656 182.906 483.344 182.938 481.344 183C478.969 183.062 476.781 183.125 474.781 183.188C472.719 183.188 470.438 183.281 467.938 183.469C465.75 183.594 463.156 183.781 460.156 184.031C457.219 184.281 453.969 184.625 450.406 185.062C450.719 180.812 450.938 176.812 451.062 173.062C451.25 169.25 451.375 165.906 451.438 163.031C451.5 159.656 451.5 156.531 451.438 153.656C451.75 146.469 451.625 140.656 451.062 136.219C450.5 131.781 449.844 128.938 449.094 127.688C448.719 127.25 448.188 126.719 447.5 126.094C446.938 125.594 446.156 125 445.156 124.312C444.156 123.625 442.906 122.844 441.406 121.969ZM504.05 117.562C506.05 117.875 507.862 118.156 509.487 118.406C511.112 118.594 512.519 118.75 513.706 118.875C515.081 119.062 516.3 119.219 517.362 119.344C518.675 119.531 520.644 119.312 523.269 118.688C525.894 118 528.769 117.375 531.894 116.812C535.081 116.188 538.331 115.844 541.644 115.781C544.956 115.656 547.987 116.25 550.737 117.562C553.487 118.875 555.737 120.188 557.487 121.5C559.237 122.812 560.612 124.219 561.612 125.719C562.675 127.156 563.425 128.688 563.862 130.312C564.3 131.938 564.55 133.719 564.612 135.656C564.55 138.531 563.862 141.312 562.55 144C561.987 145.125 561.237 146.312 560.3 147.562C559.425 148.75 558.331 149.906 557.019 151.031C555.706 152.156 554.144 153.219 552.331 154.219C550.581 155.219 548.519 156.094 546.144 156.844C548.456 157.531 550.362 158.344 551.862 159.281C553.425 160.219 554.675 161.094 555.612 161.906C556.737 162.906 557.581 163.875 558.144 164.812C558.831 166.125 559.3 167.25 559.55 168.188C559.8 169.125 559.956 170.031 560.019 170.906C560.144 171.719 560.3 172.562 560.487 173.438C560.675 174.312 561.081 175.312 561.706 176.438C562.206 177.312 562.8 178.219 563.487 179.156C564.112 179.969 564.831 180.844 565.644 181.781C566.519 182.719 567.581 183.625 568.831 184.5C567.081 184.562 565.456 184.594 563.956 184.594C562.519 184.594 561.269 184.594 560.206 184.594C558.956 184.594 557.769 184.562 556.644 184.5C555.519 184.438 554.112 184.406 552.425 184.406C550.987 184.406 549.144 184.406 546.894 184.406C544.706 184.406 542.05 184.438 538.925 184.5C540.3 183.438 541.425 182.375 542.3 181.312C543.175 180.25 543.862 179.281 544.362 178.406C544.925 177.406 545.331 176.438 545.581 175.5C545.894 173.812 545.925 172.062 545.675 170.25C545.487 168.688 544.987 166.969 544.175 165.094C543.362 163.156 542.05 161.219 540.237 159.281C538.425 159.594 536.894 159.844 535.644 160.031C534.456 160.156 533.425 160.281 532.55 160.406C531.55 160.531 530.737 160.625 530.112 160.688C529.55 160.75 528.925 160.812 528.237 160.875C527.675 160.938 527.05 161.031 526.362 161.156C525.737 161.219 525.144 161.312 524.581 161.438C524.456 164.125 524.456 166.469 524.581 168.469C524.706 170.406 524.862 172.031 525.05 173.344C525.3 174.906 525.581 176.25 525.894 177.375C526.206 178.5 526.644 179.594 527.206 180.656C527.644 181.531 528.206 182.469 528.894 183.469C529.581 184.406 530.362 185.188 531.237 185.812C529.612 185.812 528.05 185.812 526.55 185.812C525.112 185.812 523.8 185.781 522.612 185.719C521.237 185.719 519.925 185.688 518.675 185.625C517.425 185.562 516.019 185.531 514.456 185.531C513.144 185.531 511.581 185.531 509.769 185.531C508.019 185.531 506.112 185.562 504.05 185.625C505.675 183.938 506.956 182.5 507.894 181.312C508.831 180.125 509.55 179.125 510.05 178.312C510.612 177.438 510.956 176.688 511.081 176.062C511.206 175.062 511.3 173.281 511.362 170.719C511.487 168.094 511.581 165.094 511.644 161.719C511.706 158.344 511.737 154.812 511.737 151.125C511.737 147.438 511.706 144 511.644 140.812C511.581 137.562 511.519 134.781 511.456 132.469C511.394 130.156 511.331 128.688 511.269 128.062C511.081 126.938 510.675 125.812 510.05 124.688C509.55 123.688 508.831 122.562 507.894 121.312C506.956 120.062 505.675 118.812 504.05 117.562ZM539.487 150.562C540.112 150.188 540.644 149.812 541.081 149.438C541.519 149.062 541.894 148.469 542.206 147.656C542.519 146.781 542.769 145.562 542.956 144C543.206 142.438 543.487 140.312 543.8 137.625C544.05 134.938 543.862 132.719 543.237 130.969C542.675 129.219 541.894 127.844 540.894 126.844C539.956 125.781 538.894 125.062 537.706 124.688C536.581 124.25 535.581 124.031 534.706 124.031C532.956 124.031 531.237 124.562 529.55 125.625C527.862 126.688 526.581 128.125 525.706 129.938C525.394 130.75 525.112 132.094 524.862 133.969C524.675 135.594 524.55 137.844 524.487 140.719C524.425 143.594 524.519 147.375 524.769 152.062C527.144 152.438 529.237 152.594 531.05 152.531C532.862 152.406 534.394 152.188 535.644 151.875C537.144 151.562 538.425 151.125 539.487 150.562ZM585.069 122.531C588.194 122.719 590.819 122.875 592.944 123C595.131 123.062 596.944 123.125 598.381 123.188C600.006 123.25 601.381 123.25 602.506 123.188C603.631 123.125 605.162 122.969 607.1 122.719C608.725 122.531 610.881 122.25 613.569 121.875C616.319 121.438 619.725 120.875 623.787 120.188C622.35 121.625 621.225 122.938 620.412 124.125C619.662 125.25 619.069 126.219 618.631 127.031C618.131 128.031 617.787 128.875 617.6 129.562C617.475 130.188 617.6 131.75 617.975 134.25C618.35 136.75 618.881 139.719 619.569 143.156C620.256 146.531 621.006 150.156 621.819 154.031C622.631 157.844 623.444 161.438 624.256 164.812C625.069 168.125 625.787 170.969 626.412 173.344C627.1 175.656 627.6 177.031 627.912 177.469C628.85 178.781 629.444 179.656 629.694 180.094C629.944 180.469 630.381 180.812 631.006 181.125C631.256 181.25 631.662 181.438 632.225 181.688C632.725 181.938 633.381 182.25 634.194 182.625C635.069 183 636.162 183.438 637.475 183.938C635.037 184.062 632.944 184.156 631.194 184.219C629.444 184.219 628.006 184.25 626.881 184.312C625.569 184.375 624.444 184.438 623.506 184.5C622.569 184.5 621.444 184.562 620.131 184.688C619.006 184.812 617.537 184.938 615.725 185.062C613.975 185.188 611.912 185.312 609.537 185.438C610.787 184.562 611.787 183.781 612.537 183.094C613.35 182.344 613.975 181.719 614.412 181.219C614.912 180.594 615.256 180.031 615.444 179.531C615.569 178.969 615.662 178.125 615.725 177C615.787 176 615.787 174.688 615.725 173.062C615.662 171.375 615.506 169.188 615.256 166.5L590.6 169.031C589.975 170.094 589.506 171.031 589.194 171.844C588.881 172.594 588.662 173.25 588.537 173.812C588.35 174.5 588.287 175.062 588.35 175.5C588.475 176 588.694 176.594 589.006 177.281C589.319 177.906 589.756 178.656 590.319 179.531C590.944 180.344 591.85 181.312 593.037 182.438C591.475 182.375 589.881 182.344 588.256 182.344C586.631 182.344 585.131 182.375 583.756 182.438C582.131 182.5 580.537 182.562 578.975 182.625C577.412 182.688 575.631 182.781 573.631 182.906C571.944 183.031 569.975 183.188 567.725 183.375C565.412 183.5 562.944 183.688 560.319 183.938C561.944 183.188 563.319 182.438 564.444 181.688C565.569 180.875 566.506 180.125 567.256 179.438C568.131 178.688 568.881 177.969 569.506 177.281C569.944 176.656 570.819 175.219 572.131 172.969C573.444 170.656 574.912 167.938 576.537 164.812C578.225 161.688 579.975 158.344 581.787 154.781C583.662 151.219 585.35 147.875 586.85 144.75C588.35 141.562 589.569 138.812 590.506 136.5C591.444 134.188 591.912 132.688 591.912 132C591.787 131.188 591.475 130.281 590.975 129.281C590.537 128.406 589.85 127.406 588.912 126.281C588.037 125.156 586.756 123.906 585.069 122.531ZM614.131 159.562C613.756 157.375 613.412 155.5 613.1 153.938C612.787 152.312 612.537 150.969 612.35 149.906C612.1 148.656 611.912 147.562 611.787 146.625C611.6 145.75 611.381 144.625 611.131 143.25C610.881 142.062 610.569 140.594 610.194 138.844C609.881 137.031 609.475 134.875 608.975 132.375C605.412 139.5 602.631 145.031 600.631 148.969C598.694 152.844 597.287 155.688 596.412 157.5C595.35 159.625 594.756 160.875 594.631 161.25L614.131 159.562ZM634.588 117.562C638.775 118.062 642.4 118.438 645.463 118.688C648.525 118.875 651.056 119.031 653.056 119.156C655.369 119.281 657.306 119.312 658.869 119.25C660.494 119.188 662.713 119.031 665.525 118.781C667.9 118.594 671.025 118.344 674.9 118.031C678.775 117.656 683.619 117.156 689.431 116.531C689.494 117.969 689.525 119.375 689.525 120.75C689.588 122.062 689.65 123.219 689.713 124.219C689.775 125.406 689.806 126.5 689.806 127.5C689.806 128.562 689.744 129.906 689.619 131.531C689.494 132.906 689.275 134.656 688.963 136.781C688.713 138.844 688.306 141.312 687.744 144.188C686.869 140.812 686.025 138.094 685.213 136.031C684.4 133.906 683.65 132.219 682.963 130.969C682.213 129.531 681.463 128.438 680.713 127.688C679.9 127.125 678.931 126.656 677.806 126.281C676.806 125.969 675.525 125.719 673.963 125.531C672.463 125.344 670.681 125.375 668.619 125.625C668.306 133.875 668.088 140.562 667.963 145.688C667.838 150.812 667.744 154.812 667.681 157.688C667.619 161.125 667.588 163.594 667.588 165.094C667.65 167.219 667.994 169.312 668.619 171.375C669.119 173.125 669.931 174.938 671.056 176.812C672.181 178.688 673.806 180.344 675.931 181.781H664.494C663.431 181.781 662.119 181.844 660.556 181.969C659.244 182.094 657.556 182.219 655.494 182.344C653.494 182.469 651.15 182.688 648.463 183C649.4 181.375 650.15 179.906 650.713 178.594C651.275 177.281 651.713 176.156 652.025 175.219C652.4 174.094 652.681 173.094 652.869 172.219C652.931 170.969 653.088 168.438 653.338 164.625C653.4 163.062 653.463 161.125 653.525 158.812C653.65 156.5 653.775 153.75 653.9 150.562C654.088 147.375 654.244 143.719 654.369 139.594C654.556 135.406 654.744 130.688 654.931 125.438C653.806 125.125 652.744 125.156 651.744 125.531C650.744 125.844 649.869 126.25 649.119 126.75C648.244 127.375 647.4 128.125 646.588 129C645.775 130.062 644.869 131.438 643.869 133.125C642.994 134.562 641.994 136.469 640.869 138.844C639.744 141.156 638.463 144.031 637.025 147.469C636.713 143.844 636.494 140.875 636.369 138.562C636.244 136.188 636.15 134.344 636.088 133.031C636.025 131.469 635.994 130.312 635.994 129.562C635.994 128.875 635.931 127.969 635.806 126.844C635.681 125.906 635.525 124.688 635.338 123.188C635.15 121.625 634.9 119.75 634.588 117.562ZM692.731 121.406C694.856 121.656 696.638 121.844 698.075 121.969C699.575 122.031 700.794 122.125 701.731 122.25C702.856 122.375 703.731 122.438 704.356 122.438C705.044 122.5 706.075 122.469 707.45 122.344C708.638 122.219 710.231 122.062 712.231 121.875C714.294 121.688 716.919 121.406 720.106 121.031C718.669 122.281 717.513 123.5 716.638 124.688C715.825 125.812 715.2 126.812 714.763 127.688C714.2 128.75 713.856 129.75 713.731 130.688C713.481 132.188 713.263 134.25 713.075 136.875C712.95 139.438 712.825 142.25 712.7 145.312C712.575 148.375 712.513 151.531 712.513 154.781C712.513 158.031 712.544 161.125 712.606 164.062C712.731 166.938 712.919 169.5 713.169 171.75C713.481 174 713.856 175.625 714.294 176.625C714.919 177.75 715.575 178.875 716.263 180C716.888 180.938 717.638 181.906 718.513 182.906C719.388 183.906 720.388 184.719 721.513 185.344C717.825 185.156 714.888 185.062 712.7 185.062H709.325C708.325 185.062 707.044 185.125 705.481 185.25C704.169 185.375 702.513 185.5 700.513 185.625C698.513 185.75 696.106 185.938 693.294 186.188C694.731 184.625 695.856 183.125 696.669 181.688C697.481 180.25 698.138 179 698.638 177.938C699.2 176.688 699.575 175.5 699.763 174.375C700.013 172.75 700.2 170.75 700.325 168.375C700.513 165.938 700.638 163.344 700.7 160.594C700.763 157.781 700.763 154.938 700.7 152.062C700.7 149.125 700.638 146.312 700.513 143.625C700.388 140.938 700.2 138.5 699.95 136.312C699.763 134.125 699.513 132.375 699.2 131.062C699.013 130.25 698.638 129.344 698.075 128.344C697.575 127.469 696.888 126.469 696.013 125.344C695.2 124.156 694.106 122.844 692.731 121.406ZM760.062 115.312C763.438 115.438 766.844 116.062 770.281 117.188C773.781 118.25 777 120 779.938 122.438C782.875 124.812 785.375 127.906 787.438 131.719C789.5 135.469 790.781 140.062 791.281 145.5C791.719 149.938 791.156 154.344 789.594 158.719C788.094 163.031 786 167 783.312 170.625C780.625 174.25 777.531 177.344 774.031 179.906C770.531 182.406 767.031 184.062 763.531 184.875C761.406 185.375 759.062 185.438 756.5 185.062C754 184.625 751.438 183.844 748.812 182.719C746.25 181.531 743.719 180.031 741.219 178.219C738.781 176.406 736.562 174.344 734.562 172.031C732.562 169.656 730.875 167.094 729.5 164.344C728.188 161.594 727.375 158.719 727.062 155.719C726.75 153.219 726.719 150.469 726.969 147.469C727.281 144.406 727.875 141.375 728.75 138.375C729.688 135.312 730.969 132.375 732.594 129.562C734.281 126.688 736.406 124.188 738.969 122.062C741.531 119.875 744.531 118.188 747.969 117C751.469 115.75 755.5 115.188 760.062 115.312ZM743.281 153.281C742.406 159.969 743.031 165.344 745.156 169.406C747.344 173.469 750.625 175.938 755 176.812C757.125 177.25 759.156 176.812 761.094 175.5C763.094 174.125 764.906 172.156 766.531 169.594C768.156 167.031 769.562 164.031 770.75 160.594C771.938 157.156 772.812 153.562 773.375 149.812C773.938 146.062 773.969 142.688 773.469 139.688C773.031 136.625 772.25 134.031 771.125 131.906C770 129.719 768.625 128.031 767 126.844C765.438 125.656 763.812 125 762.125 124.875C759.188 124.688 756.625 125.469 754.438 127.219C752.25 128.906 750.406 131.125 748.906 133.875C747.406 136.625 746.188 139.719 745.25 143.156C744.375 146.594 743.719 149.969 743.281 153.281ZM796.737 119.531C799.55 120.031 801.862 120.375 803.675 120.562C805.487 120.75 806.956 120.906 808.081 121.031C809.394 121.156 810.425 121.188 811.175 121.125H813.987C814.987 121.125 816.237 121.125 817.737 121.125C819.3 121.062 821.237 121.031 823.55 121.031C824.862 124.094 826.05 126.906 827.112 129.469C828.237 132.031 829.175 134.219 829.925 136.031C830.8 138.219 831.612 140.188 832.362 141.938C833.237 144.125 834.175 146.531 835.175 149.156C836.175 151.781 837.081 154.25 837.894 156.562C838.769 158.875 839.487 160.781 840.05 162.281C840.612 163.781 840.894 164.469 840.894 164.344C840.894 164.281 840.925 163.656 840.987 162.469C841.05 161.219 841.112 159.688 841.175 157.875C841.237 156 841.3 153.969 841.362 151.781C841.487 149.531 841.55 147.375 841.55 145.312C841.612 143.188 841.644 141.25 841.644 139.5C841.644 137.75 841.581 136.438 841.456 135.562C841.269 134.5 840.894 133.281 840.331 131.906C839.831 130.719 839.144 129.312 838.269 127.688C837.394 126 836.175 124.094 834.612 121.969C837.175 122.031 839.269 122.062 840.894 122.062C842.519 122.062 843.831 122.062 844.831 122.062C845.956 122.062 846.831 122.031 847.456 121.969C848.269 121.969 849.269 121.906 850.456 121.781C851.519 121.656 852.831 121.562 854.394 121.5C856.019 121.375 858.019 121.219 860.394 121.031C859.019 122.281 857.925 123.469 857.112 124.594C856.3 125.719 855.644 126.719 855.144 127.594C854.581 128.594 854.206 129.531 854.019 130.406C853.769 131.531 853.55 133.375 853.362 135.938C853.237 138.438 853.081 141.25 852.894 144.375C852.769 147.5 852.644 150.75 852.519 154.125C852.394 157.5 852.269 160.594 852.144 163.406C852.144 165.531 852.081 167.812 851.956 170.25C851.831 172.312 851.706 174.656 851.581 177.281C851.456 179.844 851.3 182.438 851.112 185.062L842.769 185.25C840.331 180.938 838.269 177.25 836.581 174.188C834.956 171.062 833.612 168.5 832.55 166.5C831.362 164.188 830.362 162.25 829.55 160.688C828.862 159.188 827.956 157.469 826.831 155.531C825.894 153.906 824.706 151.906 823.269 149.531C821.894 147.156 820.237 144.438 818.3 141.375C818.112 145.688 818.019 149.375 818.019 152.438C818.081 155.438 818.175 157.938 818.3 159.938C818.487 162.25 818.706 164.188 818.956 165.75C819.269 167.25 819.706 168.938 820.269 170.812C820.769 172.438 821.362 174.344 822.05 176.531C822.8 178.719 823.706 181.188 824.769 183.938C821.081 183.75 818.331 183.656 816.519 183.656H813.706C812.831 183.656 811.644 183.75 810.144 183.938C808.894 184.062 807.175 184.25 804.987 184.5C802.862 184.75 800.206 185.094 797.019 185.531C798.519 183.719 799.706 182.062 800.581 180.562C801.519 179 802.237 177.688 802.737 176.625C803.362 175.375 803.8 174.281 804.05 173.344C804.237 172.344 804.362 170.625 804.425 168.188C804.487 165.688 804.487 162.875 804.425 159.75C804.425 156.562 804.362 153.219 804.237 149.719C804.175 146.219 804.081 142.969 803.956 139.969C803.831 136.969 803.675 134.406 803.487 132.281C803.362 130.156 803.269 128.844 803.206 128.344C803.019 127.531 802.644 126.656 802.081 125.719C801.581 124.906 800.925 124 800.112 123C799.3 121.938 798.175 120.781 796.737 119.531Z" fill="url(#paint0_linear_34_2)"/>
</g>
<defs>
<filter id="filter0_di_34_2" x="0.53125" y="0.53125" width="863.863" height="193.656" filterUnits="userSpaceOnUse" color-interpolation-filters="sRGB">
<feFlood flood-opacity="0" result="BackgroundImageFix"/>
<feColorMatrix in="SourceAlpha" type="matrix" values="0 0 0 0 0 0 0 0 0 0 0 0 0 0 0 0 0 0 127 0" result="hardAlpha"/>
<feOffset dy="4"/>
<feGaussianBlur stdDeviation="2"/>
<feComposite in2="hardAlpha" operator="out"/>
<feColorMatrix type="matrix" values="0 0 0 0 0 0 0 0 0 0 0 0 0 0 0 0 0 0 0.25 0"/>
<feBlend mode="normal" in2="BackgroundImageFix" result="effect1_dropShadow_34_2"/>
<feBlend mode="normal" in="SourceGraphic" in2="effect1_dropShadow_34_2" result="shape"/>
<feColorMatrix in="SourceAlpha" type="matrix" values="0 0 0 0 0 0 0 0 0 0 0 0 0 0 0 0 0 0 127 0" result="hardAlpha"/>
<feOffset dy="4"/>
<feGaussianBlur stdDeviation="2"/>
<feComposite in2="hardAlpha" operator="arithmetic" k2="-1" k3="1"/>
<feColorMatrix type="matrix" values="0 0 0 0 0 0 0 0 0 0 0 0 0 0 0 0 0 0 0.25 0"/>
<feBlend mode="normal" in2="shape" result="effect2_innerShadow_34_2"/>
</filter>
<linearGradient id="paint0_linear_34_2" x1="5" y1="94" x2="859" y2="94" gradientUnits="userSpaceOnUse">
<stop stop-color="#5271FF"/>
<stop offset="1" stop-color="#252528"/>
</linearGradient>
</defs>
</svg>
